<svg xmlns="http://www.w3.org/2000/svg" version="1.1" xmlns:xlink="http://www.w3.org/1999/xlink" xmlns:svgjs="http://svgjs.dev/svgjs" width="1440" height="560" preserveAspectRatio="none" viewBox="0 0 1440 560"><g mask="url(&quot;#SvgjsMask1003&quot;)" fill="none"><rect width="1440" height="560" x="0" y="0" fill="rgba(37, 39, 49, 1)"></rect><path d="M1387.089,256.737C1410.235,256.639,1430.163,241.025,1440.759,220.447C1450.508,201.514,1446.574,179.701,1436.387,160.999C1425.636,141.261,1409.54,122.97,1387.089,121.916C1363.079,120.788,1340.648,134.899,1329.061,155.958C1317.859,176.319,1321.028,200.767,1332.624,220.906C1344.247,241.091,1363.797,256.836,1387.089,256.737" fill="rgba(13, 53, 95, 0.4)" class="triangle-float2"></path><path d="M318.804,427.534C351.187,427.287,380.215,409.198,396.83,381.401C413.921,352.808,418.786,317.092,402.025,288.304C385.355,259.672,351.929,247.998,318.804,247.387C284.367,246.752,247.649,255.502,230.092,285.134C212.272,315.21,220.202,352.935,238.687,382.607C256.039,410.46,285.989,427.784,318.804,427.534" fill="rgba(13, 53, 95, 0.4)" class="triangle-float2"></path><path d="M1225.683,568.51C1263.49,568.756,1290.861,535.739,1308.048,502.063C1323.505,471.776,1325.033,436.412,1308.169,406.886C1291.166,377.116,1259.966,357.807,1225.683,357.854C1191.479,357.901,1160.36,377.302,1143.59,407.113C1127.141,436.352,1129.944,471.102,1145.153,501.004C1162.173,534.466,1188.142,568.266,1225.683,568.51" fill="rgba(13, 53, 95, 0.4)" class="triangle-float2"></path><path d="M411.899,213.734C436.173,215.459,462.656,211.041,475.998,190.69C490.412,168.705,489.145,139.423,475.246,117.109C462.06,95.94,436.806,86.498,411.899,87.78C389.183,88.95,369.544,102.983,358.925,123.098C348.992,141.913,351.115,164.209,361.851,182.578C372.479,200.762,390.89,212.241,411.899,213.734" fill="rgba(13, 53, 95, 0.4)" class="triangle-float1"></path><path d="M594.338,593.524C619.674,594.359,644.696,583.347,657.701,561.587C671.023,539.297,671.156,510.586,656.863,488.906C643.733,468.99,618.193,465.58,594.338,465.476C570.231,465.371,543.463,467.805,530.86,488.355C517.854,509.562,524.962,536.339,537.817,557.637C550.177,578.115,570.432,592.736,594.338,593.524" fill="rgba(13, 53, 95, 0.4)" class="triangle-float2"></path><path d="M710.477,537.402C757.532,533.441,788.297,493.013,811.037,451.628C832.682,412.236,845.659,367.27,826.23,326.739C804.062,280.495,761.746,243.065,710.477,241.853C657.435,240.599,611.714,275.286,584.838,321.032C557.565,367.453,548.553,424.887,575.589,471.447C602.526,517.836,657.023,541.902,710.477,537.402" fill="rgba(13, 53, 95, 0.4)" class="triangle-float3"></path><path d="M313.208,740.341C372.152,743.727,430.03,709.409,455.371,656.083C478.178,608.09,449.985,556.369,422.14,511.113C396.146,468.865,362.713,428.159,313.208,425.023C258.642,421.566,203.345,447.47,177.421,495.608C152.537,541.815,171.312,595.336,196.774,641.228C223.277,688.996,258.67,737.208,313.208,740.341" fill="rgba(13, 53, 95, 0.4)" class="triangle-float2"></path><path d="M1054.505,214.305C1097.972,212.398,1127.102,174.186,1147.629,135.824C1166.72,100.146,1175.945,58.644,1156.901,22.94C1136.8,-14.746,1097.2,-39.955,1054.505,-38.765C1013.549,-37.623,982.39,-6.885,961.539,28.385C940.211,64.462,927.32,107.182,946.064,144.667C966.656,185.849,1008.506,216.323,1054.505,214.305" fill="rgba(13, 53, 95, 0.4)" class="triangle-float2"></path><path d="M722.154,456.713C762.773,455.442,798.13,429.303,816.38,392.992C832.944,360.037,825.277,321.619,805.797,290.3C787.525,260.923,756.672,243.831,722.154,241.502C682.323,238.814,638.5,244.289,616.374,277.518C592.275,313.711,595.028,361.78,617.132,399.225C638.876,436.06,679.401,458.05,722.154,456.713" fill="rgba(13, 53, 95, 0.4)" class="triangle-float3"></path><path d="M994.439,576.019C1047.493,577.52,1103.381,566.41,1132.964,522.344C1165.773,473.472,1169.1,409.475,1140.95,357.779C1111.588,303.856,1055.837,267.664,994.439,267.947C933.493,268.228,877.881,304.796,850.253,359.121C824.849,409.071,837.837,468.202,868.86,514.87C896.485,556.427,944.558,574.607,994.439,576.019" fill="rgba(13, 53, 95, 0.4)" class="triangle-float2"></path><path d="M449.67,631.384C482.622,631.811,515.054,616.391,530.761,587.42C545.862,559.566,539.336,525.297,521.312,499.239C505.6,476.524,477.284,470.758,449.67,470.185C420.651,469.583,388.899,472.079,372.691,496.157C354.894,522.596,356.373,557.666,372.14,585.364C388.075,613.357,417.462,630.967,449.67,631.384" fill="rgba(13, 53, 95, 0.4)" class="triangle-float3"></path><path d="M168.817,391.514C204.586,390.5,236.584,371.852,255.625,341.556C276.113,308.957,285.577,268.456,267.533,234.443C248.488,198.542,209.449,178.723,168.817,177.919C126.656,177.084,83.9,193.719,63.092,230.396C42.508,266.678,50.159,311.856,73.044,346.732C93.767,378.312,131.06,392.584,168.817,391.514" fill="rgba(13, 53, 95, 0.4)" class="triangle-float3"></path></g><defs><mask id="SvgjsMask1003"><rect width="1440" height="560" fill="#ffffff"></rect></mask><style>
                @keyframes float1 {
                    0%{transform: translate(0, 0)}
                    50%{transform: translate(-10px, 0)}
                    100%{transform: translate(0, 0)}
                }

                .triangle-float1 {
                    animation: float1 5s infinite;
                }

                @keyframes float2 {
                    0%{transform: translate(0, 0)}
                    50%{transform: translate(-5px, -5px)}
                    100%{transform: translate(0, 0)}
                }

                .triangle-float2 {
                    animation: float2 4s infinite;
                }

                @keyframes float3 {
                    0%{transform: translate(0, 0)}
                    50%{transform: translate(0, -10px)}
                    100%{transform: translate(0, 0)}
                }

                .triangle-float3 {
                    animation: float3 6s infinite;
                }
            </style></defs></svg>