<svg xmlns="http://www.w3.org/2000/svg" version="1.1" xmlns:xlink="http://www.w3.org/1999/xlink" xmlns:svgjs="http://svgjs.dev/svgjs" width="1440" height="560" preserveAspectRatio="none" viewBox="0 0 1440 560"><g mask="url(&quot;#SvgjsMask1021&quot;)" fill="none"><rect width="1440" height="560" x="0" y="0" fill="rgba(37, 39, 49, 1)"></rect><path d="M129.444,269.34C179.245,270.823,224.56,241.888,249.829,198.948C275.48,155.36,281.254,100.143,254.136,57.453C228.539,17.157,177.177,10.133,129.444,9.431C79.977,8.704,23.507,11.16,-1.767,53.689C-27.371,96.772,-5.184,149.316,20.866,192.131C45.607,232.795,81.866,267.923,129.444,269.34" fill="rgba(13, 53, 95, 0.4)" class="triangle-float2"></path><path d="M22.613,70.278C40.631,70.815,59.425,64.68,68.378,49.035C77.285,33.47,73.016,14.198,63.349,-0.906C54.472,-14.775,39.044,-21.38,22.613,-22.468C3.515,-23.733,-18.846,-23.422,-28.681,-7.002C-38.663,9.663,-29.404,30.257,-18.661,46.442C-9.244,60.629,5.593,69.771,22.613,70.278" fill="rgba(13, 53, 95, 0.4)" class="triangle-float1"></path><path d="M23.31,73.435C43.261,73.607,65.571,70.747,75.442,53.408C85.248,36.183,76.14,15.689,65.814,-1.23C56.047,-17.233,42.058,-32.087,23.31,-32.005C4.668,-31.924,-8.984,-16.858,-18.559,-0.863C-28.486,15.72,-36.778,35.685,-27.29,52.523C-17.687,69.564,3.751,73.267,23.31,73.435" fill="rgba(13, 53, 95, 0.4)" class="triangle-float1"></path><path d="M1444.167,241.869C1489.766,242.312,1532.742,219.951,1556.309,180.912C1580.694,140.519,1585.359,89.112,1560.648,48.917C1536.9,10.288,1489.5,-0.446,1444.167,-1.499C1396.325,-2.61,1342.591,2.273,1317.924,43.281C1292.759,85.118,1309.542,137.569,1335.734,178.771C1359.779,216.596,1399.348,241.434,1444.167,241.869" fill="rgba(13, 53, 95, 0.4)" class="triangle-float1"></path><path d="M1363.059,105.568C1387.833,106.403,1411.281,91.45,1422.121,69.158C1431.912,49.023,1422.389,26.65,1410.73,7.536C1399.705,-10.538,1384.227,-27.315,1363.059,-27.666C1341.399,-28.025,1323.219,-12.956,1312.568,5.908C1302.112,24.426,1300.901,46.426,1310.512,65.396C1321.192,86.476,1339.441,104.772,1363.059,105.568" fill="rgba(13, 53, 95, 0.4)" class="triangle-float2"></path><path d="M1443.827,249.787C1491.529,251.511,1535.579,223.916,1559.224,182.451C1582.653,141.366,1581.706,90.832,1557.71,50.076C1534.064,9.915,1490.407,-12.005,1443.827,-13.542C1394.092,-15.183,1339.822,-1.659,1316.141,42.107C1293.189,84.526,1316.768,133.514,1342.028,174.6C1365.709,213.117,1398.643,248.154,1443.827,249.787" fill="rgba(13, 53, 95, 0.4)" class="triangle-float1"></path><path d="M16.496,515.554C34.254,516.339,49.387,504.01,58.356,488.664C67.419,473.157,70.123,454.269,61.536,438.493C52.59,422.058,35.205,411.404,16.496,411.758C-1.666,412.101,-17.712,423.821,-25.688,440.141C-32.828,454.752,-27.345,471.032,-19.406,485.224C-11.209,499.878,-0.279,514.812,16.496,515.554" fill="rgba(13, 53, 95, 0.4)" class="triangle-float2"></path><path d="M78.195,624.568C115.634,626.485,154.894,613.764,173.841,581.416C192.951,548.79,184.11,508.706,165.257,475.93C146.341,443.045,116.109,413.828,78.195,415.138C41.814,416.395,17.48,449.165,0.966,481.607C-13.759,510.534,-17.291,543.86,-1.864,572.418C14.361,602.452,44.104,622.822,78.195,624.568" fill="rgba(13, 53, 95, 0.4)" class="triangle-float1"></path><path d="M142.387,763.556C203.911,765.59,263.695,731.346,290.845,676.099C315.604,625.717,290.641,569.587,261.199,521.79C233.64,477.05,194.855,437.971,142.387,435.091C84.981,431.94,27.131,457.459,-1.387,507.379C-29.714,556.964,-17.94,617.016,10.009,666.815C38.678,717.897,83.842,761.621,142.387,763.556" fill="rgba(13, 53, 95, 0.4)" class="triangle-float3"></path><path d="M1412.814,635.861C1451.447,637.462,1492.188,623.266,1510.464,589.192C1528.042,556.418,1513.056,517.83,1492.874,486.591C1474.722,458.494,1446.184,440.373,1412.814,438.041C1374.247,435.345,1330.317,440.544,1310.698,473.857C1290.899,507.474,1307.437,548.637,1328.241,581.642C1347.379,612.005,1376.954,634.375,1412.814,635.861" fill="rgba(13, 53, 95, 0.4)" class="triangle-float3"></path><path d="M1407.849,634.731C1446.674,636.226,1486.199,617.869,1503.574,583.116C1519.673,550.916,1502.402,514.784,1482.97,484.479C1465.498,457.231,1440.189,435.174,1407.849,433.831C1373.136,432.39,1338.704,447.811,1321.088,477.757C1303.246,508.086,1307.074,545.408,1324.096,576.205C1341.755,608.154,1371.372,633.326,1407.849,634.731" fill="rgba(13, 53, 95, 0.4)" class="triangle-float2"></path><path d="M1386.126,574.904C1414.63,576.032,1447.499,574.497,1461.956,549.906C1476.524,525.125,1462.321,495.317,1447.335,470.786C1433.185,447.623,1413.227,427.293,1386.126,425.78C1356.443,424.123,1326.293,437.258,1311.812,463.221C1297.632,488.645,1303.899,520.052,1320.026,544.288C1334.443,565.955,1360.121,573.875,1386.126,574.904" fill="rgba(13, 53, 95, 0.4)" class="triangle-float1"></path></g><defs><mask id="SvgjsMask1021"><rect width="1440" height="560" fill="#ffffff"></rect></mask><style>
                @keyframes float1 {
                    0%{transform: translate(0, 0)}
                    50%{transform: translate(-10px, 0)}
                    100%{transform: translate(0, 0)}
                }

                .triangle-float1 {
                    animation: float1 5s infinite;
                }

                @keyframes float2 {
                    0%{transform: translate(0, 0)}
                    50%{transform: translate(-5px, -5px)}
                    100%{transform: translate(0, 0)}
                }

                .triangle-float2 {
                    animation: float2 4s infinite;
                }

                @keyframes float3 {
                    0%{transform: translate(0, 0)}
                    50%{transform: translate(0, -10px)}
                    100%{transform: translate(0, 0)}
                }

                .triangle-float3 {
                    animation: float3 6s infinite;
                }
            </style></defs></svg>