<svg xmlns="http://www.w3.org/2000/svg" version="1.1" xmlns:xlink="http://www.w3.org/1999/xlink" xmlns:svgjs="http://svgjs.dev/svgjs" width="1440" height="560" preserveAspectRatio="none" viewBox="0 0 1440 560"><g mask="url(&quot;#SvgjsMask1017&quot;)" fill="none"><rect width="1440" height="560" x="0" y="0" fill="rgba(28, 30, 41, 1)"></rect><path d="M87.292,203.699C126.011,201.975,153.125,170.053,172.395,136.426C191.522,103.048,206.494,62.89,186.977,29.738C167.649,-3.093,125.363,-9.576,87.292,-8.134C52.199,-6.805,19.024,7.383,-0.119,36.825C-21.243,69.315,-30.021,110.311,-12.039,144.64C7.118,181.212,46.047,205.536,87.292,203.699" fill="rgba(28, 83, 142, 0.4)" class="triangle-float3"></path><path d="M74.347,174.961C109.061,175.107,138.669,151.551,155.153,121C170.794,92.011,170.6,56.789,153.194,28.824C136.699,2.322,105.563,-8.778,74.347,-8.825C43.034,-8.872,11.522,1.933,-4.913,28.586C-22.115,56.484,-20.896,91.504,-5.29,120.325C11.139,150.666,39.843,174.816,74.347,174.961" fill="rgba(28, 83, 142, 0.4)" class="triangle-float3"></path><path d="M18.931,67.629C35.274,67.586,47.822,54.464,55.365,39.966C62.281,26.672,62.111,11.29,55.143,-1.976C47.596,-16.344,35.131,-28.426,18.931,-29.4C1.096,-30.472,-17.35,-22.632,-25.699,-6.836C-33.654,8.214,-26.586,25.557,-17.835,40.158C-9.406,54.222,2.534,67.672,18.931,67.629" fill="rgba(28, 83, 142, 0.4)" class="triangle-float2"></path><path d="M1383.274,138.881C1412.164,139.264,1437.055,119.669,1450.675,94.188C1463.522,70.153,1461.417,41.627,1447.912,17.955C1434.274,-5.95,1410.767,-22.69,1383.274,-23.954C1353.402,-25.327,1321.924,-14.671,1307.45,11.497C1293.314,37.055,1303.955,67.346,1318.894,92.443C1333.4,116.813,1354.916,138.506,1383.274,138.881" fill="rgba(28, 83, 142, 0.4)" class="triangle-float1"></path><path d="M1465.946,268.664C1514.441,268.219,1562.966,249.959,1587.42,208.079C1612.057,165.886,1603.592,114.836,1581.093,71.466C1556.266,23.608,1519.859,-25.648,1465.946,-26.079C1411.568,-26.514,1373.047,21.558,1347.566,69.599C1323.975,114.076,1314.813,167.073,1340.546,210.346C1365.8,252.813,1416.539,269.118,1465.946,268.664" fill="rgba(28, 83, 142, 0.4)" class="triangle-float3"></path><path d="M1343.545,57.629C1360.283,58.438,1379.037,55.387,1387.34,40.83C1395.596,26.356,1388.281,8.939,1379.335,-5.119C1371.188,-17.921,1358.719,-27.969,1343.545,-27.989C1328.339,-28.01,1315.122,-18.423,1307.587,-5.215C1300.125,7.866,1299.035,23.853,1306.514,36.925C1314.041,50.081,1328.406,56.897,1343.545,57.629" fill="rgba(28, 83, 142, 0.4)" class="triangle-float1"></path><path d="M141.894,724.851C191.849,725.02,239.999,704.165,266.803,662.01C295.706,616.554,303.461,558.8,277.48,511.613C250.657,462.896,197.46,432.861,141.894,435.148C89.718,437.296,49.387,476.204,24.355,522.033C0.506,565.697,-6.503,618.121,18.444,661.168C43.328,704.106,92.267,724.683,141.894,724.851" fill="rgba(28, 83, 142, 0.4)" class="triangle-float1"></path><path d="M78.446,641.659C118.976,642.308,155.311,617.625,175.112,582.256C194.457,547.702,196.25,504.011,173.754,471.42C153.523,442.111,114.058,442.017,78.446,442.214C43.338,442.408,4.435,443.261,-15.054,472.464C-36.234,504.201,-31.455,545.847,-13,579.242C6.132,613.862,38.896,641.025,78.446,641.659" fill="rgba(28, 83, 142, 0.4)" class="triangle-float3"></path><path d="M66.945,590.24C96.78,590.731,127.895,584.489,144.745,559.863C163.784,532.037,167.985,495.52,152.103,465.779C135.346,434.398,102.438,411.755,66.945,414.168C34.358,416.384,14.644,447.08,-0.268,476.139C-13.558,502.037,-21.318,532.292,-6.544,557.373C8.054,582.154,38.188,589.767,66.945,590.24" fill="rgba(28, 83, 142, 0.4)" class="triangle-float1"></path><path d="M1419.579,650.422C1458.67,648.953,1493.576,627.472,1513.194,593.628C1532.873,559.677,1536.13,517.598,1516.144,483.827C1496.491,450.619,1458.149,436.605,1419.579,435.443C1378.432,434.203,1334.656,443.07,1312.377,477.686C1288.504,514.779,1289.671,563.672,1312.931,601.152C1335.063,636.814,1377.638,651.998,1419.579,650.422" fill="rgba(28, 83, 142, 0.4)" class="triangle-float2"></path><path d="M1349.489,524.197C1368.46,524.393,1384.618,511.677,1393.951,495.159C1403.121,478.929,1404.81,459.073,1395.366,443.001C1386.035,427.121,1367.903,419.859,1349.489,419.49C1330.302,419.105,1309.861,424.45,1300.31,441.096C1290.792,457.684,1296.849,477.798,1306.589,494.257C1316.108,510.342,1330.8,524.004,1349.489,524.197" fill="rgba(28, 83, 142, 0.4)" class="triangle-float3"></path><path d="M1414.493,654.493C1455.065,654.475,1488.777,624.071,1506.109,587.387C1521.196,555.455,1510.544,519.815,1492.458,489.48C1474.921,460.066,1448.664,435.972,1414.493,433.721C1376.157,431.195,1336.131,444.893,1316.443,477.884C1296.347,511.558,1303.704,553.181,1322.739,587.467C1342.443,622.959,1373.898,654.511,1414.493,654.493" fill="rgba(28, 83, 142, 0.4)" class="triangle-float3"></path></g><defs><mask id="SvgjsMask1017"><rect width="1440" height="560" fill="#ffffff"></rect></mask><style>
                @keyframes float1 {
                    0%{transform: translate(0, 0)}
                    50%{transform: translate(-10px, 0)}
                    100%{transform: translate(0, 0)}
                }

                .triangle-float1 {
                    animation: float1 5s infinite;
                }

                @keyframes float2 {
                    0%{transform: translate(0, 0)}
                    50%{transform: translate(-5px, -5px)}
                    100%{transform: translate(0, 0)}
                }

                .triangle-float2 {
                    animation: float2 4s infinite;
                }

                @keyframes float3 {
                    0%{transform: translate(0, 0)}
                    50%{transform: translate(0, -10px)}
                    100%{transform: translate(0, 0)}
                }

                .triangle-float3 {
                    animation: float3 6s infinite;
                }
            </style></defs></svg>