<svg xmlns="http://www.w3.org/2000/svg" version="1.1" xmlns:xlink="http://www.w3.org/1999/xlink" xmlns:svgjs="http://svgjs.dev/svgjs" width="1440" height="1060" preserveAspectRatio="none" viewBox="0 0 1440 1060"><g mask="url(&quot;#SvgjsMask1019&quot;)" fill="none"><rect width="1440" height="1060" x="0" y="0" fill="#0e2a47"></rect><path d="M63.571,164.508C106.214,164.524,156.468,166.445,177.662,129.442C198.795,92.546,171.753,50.203,149.948,13.701C128.959,-21.435,104.497,-61.935,63.571,-61.548C23.004,-61.164,0.769,-19.528,-20.023,15.308C-41.632,51.513,-70.98,92.573,-50.371,129.356C-29.548,166.521,20.97,164.492,63.571,164.508" fill="rgba(16, 67, 119, 0.4)" class="triangle-float3"></path><path d="M83.101,225.856C131.316,224.024,167.579,187.587,191.994,145.97C216.786,103.71,233.478,52.846,209.743,9.984C185.44,-33.903,133.264,-50.001,83.101,-50.671C31.501,-51.36,-22.841,-37.641,-49.539,6.521C-76.995,51.937,-68.598,109.417,-41.136,154.829C-14.679,198.578,32.011,227.797,83.101,225.856" fill="rgba(16, 67, 119, 0.4)" class="triangle-float1"></path><path d="M280.417,613.596C400.962,622.554,520.137,558.344,577.703,452.055C633.012,349.932,609.73,223.864,542.958,128.839C485.262,46.731,380.754,27.262,280.417,28.984C183.908,30.64,82.558,54.741,33.036,137.592C-17.536,222.199,5.48,325.446,50.935,412.909C101.161,509.552,171.802,605.524,280.417,613.596" fill="rgba(16, 67, 119, 0.4)" class="triangle-float2"></path><path d="M1248.483,105.32C1276.008,104.858,1292.563,77.693,1305.331,53.304C1316.914,31.179,1324.225,5.586,1312.135,-16.266C1299.72,-38.706,1274.124,-49.889,1248.483,-49.447C1223.626,-49.019,1200.92,-35.685,1188.521,-14.136C1176.154,7.357,1177.105,33.108,1188.229,55.27C1200.783,80.28,1220.503,105.79,1248.483,105.32" fill="rgba(16, 67, 119, 0.4)" class="triangle-float3"></path><path d="M1400.701,383.793C1475.367,383.328,1540.276,339.451,1579.823,276.117C1622.219,208.221,1646.094,123.446,1606.821,53.697C1566.986,-17.049,1481.729,-47.136,1400.701,-42.004C1328.013,-37.4,1271.467,13.987,1235.337,77.228C1199.552,139.866,1183.421,214.883,1217.669,278.374C1253.494,344.789,1325.241,384.263,1400.701,383.793" fill="rgba(16, 67, 119, 0.4)" class="triangle-float1"></path><path d="M1279.516,141.955C1311.82,139.335,1340.736,124.24,1358.315,97.011C1377.743,66.918,1389.178,29.525,1372.6,-2.227C1354.995,-35.946,1317.549,-53.3,1279.516,-53.911C1240.307,-54.541,1202.022,-38.471,1181.104,-5.302C1158.74,30.159,1151.659,77.027,1174.954,111.884C1196.552,144.201,1240.773,145.098,1279.516,141.955" fill="rgba(16, 67, 119, 0.4)" class="triangle-float1"></path><path d="M211.338,1297.718C294.661,1297.579,369.973,1247.052,408.532,1173.188C444.495,1104.295,426.204,1024.979,389.461,956.499C350.036,883.02,294.696,807.897,211.338,805.666C125.305,803.364,56.717,870.733,15.901,946.503C-22.622,1018.016,-26.496,1102.868,13.001,1173.848C53.623,1246.85,127.795,1297.857,211.338,1297.718" fill="rgba(16, 67, 119, 0.4)" class="triangle-float3"></path><path d="M213.945,1317.562C309.909,1321.693,409.681,1285.859,456.764,1202.137C503.135,1119.681,475.509,1020.151,426.814,939.045C379.824,860.778,305.165,801.269,213.945,797.695C116.367,793.872,16.692,835.34,-29.92,921.15C-74.911,1003.977,-44.567,1102.4,4.821,1182.683C51.405,1258.407,125.122,1313.739,213.945,1317.562" fill="rgba(16, 67, 119, 0.4)" class="triangle-float2"></path><path d="M175.05,1214.315C241.692,1212.162,299.167,1171.701,332.339,1113.861C365.331,1056.335,368.628,987.717,339.05,928.364C305.689,861.42,249.72,802.57,175.05,798.234C93.606,793.505,13.08,835.375,-25.629,907.188C-62.726,976.011,-43.647,1059.173,-0.881,1124.624C37.71,1183.685,104.536,1216.593,175.05,1214.315" fill="rgba(16, 67, 119, 0.4)" class="triangle-float3"></path><path d="M1273.838,980.091C1304.278,979.973,1331.567,962.316,1346.679,935.892C1361.681,909.662,1362.614,877.473,1347.486,851.316C1332.377,825.191,1303.998,811.036,1273.838,809.944C1241.417,808.77,1206.686,817.608,1190.335,845.628C1173.887,873.815,1182.795,908.737,1200.012,936.461C1216.175,962.488,1243.201,980.21,1273.838,980.091" fill="rgba(16, 67, 119, 0.4)" class="triangle-float3"></path><path d="M1443.489,1333.469C1539.312,1333.173,1631.562,1282.505,1674.205,1196.693C1713.245,1118.133,1678.836,1028.807,1631.632,954.864C1588.776,887.732,1523.037,839.216,1443.489,835.285C1356.271,830.975,1267.335,861.068,1220.122,934.528C1169.169,1013.807,1164.247,1115.899,1210.287,1198.128C1257.347,1282.179,1347.16,1333.767,1443.489,1333.469" fill="rgba(16, 67, 119, 0.4)" class="triangle-float2"></path><path d="M1506.466,1440.645C1614.864,1442.616,1706.482,1367.111,1758.881,1272.198C1809.428,1180.64,1813.605,1069.902,1761.067,979.472C1708.769,889.455,1610.543,840.203,1506.466,837.733C1397.492,835.146,1283.068,871.634,1230.032,966.867C1178.05,1060.206,1215.62,1171.021,1269.462,1263.3C1322.757,1354.643,1400.729,1438.723,1506.466,1440.645" fill="rgba(16, 67, 119, 0.4)" class="triangle-float1"></path></g><defs><mask id="SvgjsMask1019"><rect width="1440" height="1060" fill="#ffffff"></rect></mask><style>
                @keyframes float1 {
                    0%{transform: translate(0, 0)}
                    50%{transform: translate(-10px, 0)}
                    100%{transform: translate(0, 0)}
                }

                .triangle-float1 {
                    animation: float1 5s infinite;
                }

                @keyframes float2 {
                    0%{transform: translate(0, 0)}
                    50%{transform: translate(-5px, -5px)}
                    100%{transform: translate(0, 0)}
                }

                .triangle-float2 {
                    animation: float2 4s infinite;
                }

                @keyframes float3 {
                    0%{transform: translate(0, 0)}
                    50%{transform: translate(0, -10px)}
                    100%{transform: translate(0, 0)}
                }

                .triangle-float3 {
                    animation: float3 6s infinite;
                }
            </style></defs></svg>