<svg xmlns="http://www.w3.org/2000/svg" version="1.1" xmlns:xlink="http://www.w3.org/1999/xlink" xmlns:svgjs="http://svgjs.dev/svgjs" width="1440" height="560" preserveAspectRatio="none" viewBox="0 0 1440 560"><g mask="url(&quot;#SvgjsMask1000&quot;)" fill="none"><rect width="1440" height="560" x="0" y="0" fill="#0e2a47"></rect><path d="M720 754.91C842.23 763.62 954.84 687.76 1035.79 595.79 1111.78 509.47 1143.95 394.89 1138.06 280 1132.49 171.13 1084.55 69.54 1005.02-5.02 928.05-77.17 825.2-103.89 720-111.92 603.38-120.83 468.64-136.74 387.82-52.18 307.65 31.73 334.34 164.5 345.49 280 355.18 380.61 383.64 474.41 446.23 553.77 519.13 646.18 602.6 746.55 720 754.91" fill="#1c538e"></path><path d="M720 587.3C799.09 592.93 871.95 543.85 924.34 484.34 973.51 428.48 994.32 354.34 990.51 280 986.9 209.56 955.88 143.82 904.43 95.57 854.62 48.89 788.07 31.6 720 26.41 644.54 20.64 557.35 10.35 505.06 65.06 453.18 119.36 470.45 205.27 477.67 280 483.94 345.1 502.35 405.8 542.86 457.14 590.02 516.94 644.03 581.88 720 587.3" fill="#2774c6"></path><path d="M720 419.68C755.95 422.24 789.07 399.93 812.88 372.88 835.23 347.49 844.69 313.79 842.96 280 841.32 247.98 827.22 218.1 803.83 196.17 781.19 174.95 750.94 167.09 720 164.73 685.7 162.11 646.07 157.43 622.3 182.3 598.72 206.98 606.57 246.03 609.85 280 612.7 309.59 621.07 337.18 639.48 360.52 660.92 387.7 685.47 417.22 720 419.68" fill="#488fdb"></path></g><defs><mask id="SvgjsMask1000"><rect width="1440" height="560" fill="#ffffff"></rect></mask></defs></svg>